<svg width="24" height="24" viewBox="0 0 24 24" fill="none" xmlns="http://www.w3.org/2000/svg">
<path d="M12 0C5.38383 0 0 5.38383 0 12C0 18.6162 5.38383 24 12 24C18.6162 24 24 18.6162 24 12C24 5.38383 18.6162 0 12 0ZM16.5443 15.8035C16.7478 16.007 16.7478 16.3409 16.5443 16.5443C16.44 16.6435 16.3096 16.6957 16.1739 16.6957C16.0383 16.6957 15.9078 16.6435 15.8035 16.5443L12 12.7409L8.19652 16.5443C8.09217 16.6435 7.96174 16.6957 7.82609 16.6957C7.69043 16.6957 7.56 16.6435 7.45565 16.5443C7.25217 16.3409 7.25217 16.007 7.45565 15.8035L11.2591 12L7.45565 8.19652C7.25217 7.99304 7.25217 7.65913 7.45565 7.45565C7.65913 7.25217 7.99304 7.25217 8.19652 7.45565L12 11.2591L15.8035 7.45565C16.007 7.25217 16.3409 7.25217 16.5443 7.45565C16.7478 7.65913 16.7478 7.99304 16.5443 8.19652L12.7409 12L16.5443 15.8035Z" fill="#F07777"/>
</svg>
